<svg width="512" height="512" viewBox="0 0 512 512" fill="none" xmlns="http://www.w3.org/2000/svg">
<rect width="512" height="512" rx="140" fill="#535353"/>
<path d="M193.382 442C209.869 442 225.681 435.45 237.34 423.792C248.998 412.133 255.548 396.321 255.548 379.833V317.666H193.382C176.894 317.666 161.082 324.216 149.423 335.875C137.765 347.533 131.215 363.345 131.215 379.833C131.215 396.321 137.765 412.133 149.423 423.792C161.082 435.45 176.894 442 193.382 442Z" fill="#0ACF83"/>
<path d="M131.215 255.5C131.215 239.013 137.765 223.2 149.423 211.542C161.082 199.883 176.894 193.334 193.382 193.334H255.548V317.667H193.382C176.894 317.667 161.082 311.117 149.423 299.459C137.765 287.8 131.215 271.988 131.215 255.5Z" fill="#A259FF"/>
<path d="M131.215 131.167C131.215 114.687 137.758 98.8825 149.406 87.2254C161.054 75.5682 176.854 69.0129 193.333 69H255.5V193.333H193.382C176.894 193.333 161.082 186.784 149.423 175.125C137.765 163.467 131.215 147.654 131.215 131.167Z" fill="#F24E1E"/>
<path d="M255.548 69H317.715C334.202 69 350.014 75.5497 361.673 87.2082C373.332 98.8667 379.881 114.679 379.881 131.167C379.881 147.654 373.332 163.467 361.673 175.125C350.014 186.784 334.202 193.333 317.715 193.333H255.548V69Z" fill="#FF7262"/>
<path d="M379.881 255.5C379.881 271.988 373.332 287.8 361.673 299.459C350.014 311.117 334.202 317.667 317.715 317.667C301.227 317.667 285.415 311.117 273.756 299.459C262.098 287.8 255.548 271.988 255.548 255.5C255.548 239.013 262.098 223.2 273.756 211.542C285.415 199.883 301.227 193.334 317.715 193.334C334.202 193.334 350.014 199.883 361.673 211.542C373.332 223.2 379.881 239.013 379.881 255.5Z" fill="#1ABCFE"/>
</svg>
