<svg width="756" height="756" viewBox="0 0 756 756" fill="none" xmlns="http://www.w3.org/2000/svg">
<g filter="url(#filter0_b_1791_659)">
<g clip-path="url(#clip0_1791_659)">
<rect width="755.409" height="755.409" rx="200" fill="black"/>
<rect width="755.409" height="755.409" rx="200" fill="url(#paint0_radial_1791_659)" fill-opacity="0.2"/>
<rect width="755.409" height="755.409" rx="200" fill="url(#paint1_linear_1791_659)" fill-opacity="0.2"/>
<path d="M633.351 567.005C619.7 567.005 608.205 562.335 598.865 552.995C589.525 543.655 584.855 532.519 584.855 519.586C584.855 506.654 589.525 495.697 598.865 486.717C608.205 477.377 619.7 472.707 633.351 472.707C647.002 472.707 658.318 477.377 667.298 486.717C676.638 495.697 681.308 506.654 681.308 519.586C681.308 532.878 676.638 544.194 667.298 553.534C658.318 562.515 647.002 567.005 633.351 567.005Z" fill="#F6F6F6" fill-opacity="0.72"/>
<g filter="url(#filter1_d_1791_659)">
<path d="M235.39 458.145C278.876 458.145 302.895 429.2 302.895 394.521C302.895 381.744 297.738 368.208 289.204 359.853C284.616 355.504 281.928 353.801 281.928 348.702C281.928 343.973 285.456 340.465 290.924 340.465C294.649 340.465 297.112 341.582 300.939 344.804C307.251 350.384 312.432 358.678 315.62 367.955C342.63 361.532 354.226 344.595 354.226 316.597C354.226 311.587 358.358 307.455 363.367 307.455C368.472 307.455 372.646 311.587 372.646 316.597C372.867 352.842 355.967 376.552 320.575 385.354C320.804 388.5 321.076 391.521 321.076 394.761C321.076 424.582 307.449 448.451 284.275 462.824C301.513 477.096 325.033 484.298 349.883 484.298C354.718 484.298 360.653 483.806 370.773 483.187C368.69 475.997 367.738 468.701 367.738 461.507C367.738 365.43 500.342 383.325 500.342 287.144C500.342 249.713 466.183 223.392 428.773 223.392C423.714 223.213 417.127 224.24 410.792 226.064C399.087 207.491 377.953 197.146 356.79 197.146C320.139 197.146 294.697 222.003 293.337 256.632C293.149 262.308 289.256 265.774 284.246 265.774C278.997 265.774 274.916 261.787 275.104 255.755C275.868 242.33 279.146 230.162 284.725 219.743C275.737 216.696 266.528 215.167 257.329 215.167C216.635 215.167 189.341 241.924 189.341 271.702C189.341 293.722 205.177 313.415 233.051 313.415C237.976 313.415 242.329 317.726 242.329 322.651C242.329 327.577 237.976 331.836 233.051 331.836C203.021 331.836 182.875 316.863 174.494 296.043C157.389 313.999 146.998 339.554 146.998 364.928C146.998 419.171 182.717 458.145 235.39 458.145ZM496.953 560.003C534.227 560.003 553.276 513.043 553.276 456.367C553.276 448.429 552.919 440.781 552.606 433.509C538.889 440.735 522.119 444.449 502.799 443.74C497.737 443.501 493.656 439.701 493.656 434.598C493.656 429.495 497.737 425.08 502.799 425.414C544.959 427.027 573.053 402.602 573.053 364.511C573.053 329.165 552.492 301.733 520.204 290.786C508.765 397.937 386.919 381.531 385.065 459.217C384.45 484.211 403.232 503.755 432.534 503.755C441.566 503.755 445.642 503.483 450.213 503.306C453.169 534.778 470.453 560.003 496.953 560.003Z" fill="#F4F4F4"/>
</g>
</g>
</g>
<defs>
<filter id="filter0_b_1791_659" x="-32.7" y="-32.7" width="820.808" height="820.808" filterUnits="userSpaceOnUse" color-interpolation-filters="sRGB">
<feFlood flood-opacity="0" result="BackgroundImageFix"/>
<feGaussianBlur in="BackgroundImageFix" stdDeviation="16.35"/>
<feComposite in2="SourceAlpha" operator="in" result="effect1_backgroundBlur_1791_659"/>
<feBlend mode="normal" in="SourceGraphic" in2="effect1_backgroundBlur_1791_659" result="shape"/>
</filter>
<filter id="filter1_d_1791_659" x="17.398" y="71.5465" width="685.255" height="622.057" filterUnits="userSpaceOnUse" color-interpolation-filters="sRGB">
<feFlood flood-opacity="0" result="BackgroundImageFix"/>
<feColorMatrix in="SourceAlpha" type="matrix" values="0 0 0 0 0 0 0 0 0 0 0 0 0 0 0 0 0 0 127 0" result="hardAlpha"/>
<feOffset dy="4"/>
<feGaussianBlur stdDeviation="64.8"/>
<feComposite in2="hardAlpha" operator="out"/>
<feColorMatrix type="matrix" values="0 0 0 0 1 0 0 0 0 1 0 0 0 0 1 0 0 0 0.4 0"/>
<feBlend mode="normal" in2="BackgroundImageFix" result="effect1_dropShadow_1791_659"/>
<feBlend mode="normal" in="SourceGraphic" in2="effect1_dropShadow_1791_659" result="shape"/>
</filter>
<radialGradient id="paint0_radial_1791_659" cx="0" cy="0" r="1" gradientUnits="userSpaceOnUse" gradientTransform="translate(754.939 755.851) rotate(163.87) scale(1043.84 940.669)">
<stop stop-color="#FF8569"/>
<stop offset="0.9375" stop-color="white"/>
</radialGradient>
<linearGradient id="paint1_linear_1791_659" x1="63.6702" y1="55.0369" x2="755.409" y2="447.31" gradientUnits="userSpaceOnUse">
<stop stop-color="#34C759"/>
<stop offset="1" stop-opacity="0"/>
</linearGradient>
<clipPath id="clip0_1791_659">
<rect width="755.409" height="755.409" rx="200" fill="white"/>
</clipPath>
</defs>
</svg>
