<svg width="723" height="765" viewBox="0 0 723 765" fill="none" xmlns="http://www.w3.org/2000/svg">
<g clip-path="url(#clip0_2148_10045)">
<rect width="722.449" height="764.552" rx="200" fill="#424242"/>
<rect width="722.449" height="764.552" rx="200" fill="url(#paint0_radial_2148_10045)" fill-opacity="0.2"/>
<path d="M565.712 381.584C565.712 267.634 475.366 177.287 361.533 177.287V585.765C475.366 585.765 565.712 495.536 565.712 381.584ZM372.99 202.584V182.733H281.036V202.584H372.99ZM372.99 249.185V231.536H211.383V249.185H372.99ZM372.99 295.904V278.255H178.97V295.904H372.99ZM372.99 342.622V324.856H158.688V342.622H372.99ZM372.99 389.288V371.574H158.688V389.288H372.99ZM372.99 436.006V418.292H158.688V436.006H372.99ZM372.99 482.607V465.011H178.97V482.607H372.99ZM372.99 531.463V511.729H211.383V531.463H372.99ZM372.99 580.438V560.585H281.036V580.438H372.99ZM361.414 600C481.256 600 580 501.256 580 381.584C580 261.744 481.137 163 361.297 163C241.627 163 143 261.744 143 381.584C143 501.256 241.744 600 361.414 600ZM361.414 575.989C253.946 575.989 167.128 489.054 167.128 381.584C167.128 273.946 253.829 187.128 361.297 187.128C468.935 187.128 555.872 273.946 555.872 381.584C555.872 489.054 469.001 575.989 361.414 575.989Z" fill="white" fill-opacity="0.85"/>
<g clip-path="url(#clip1_2148_10045)">
<path d="M519.422 323.344C522.589 323.344 524.92 321.212 525.345 318.012C532.739 250.014 539.828 242.891 606.658 236.552C609.835 236.274 612.12 233.841 612.12 230.766C612.12 227.641 609.835 225.184 606.658 224.958C539.828 218.59 532.739 211.496 525.345 143.52C524.92 140.247 522.589 138.137 519.422 138.137C516.376 138.137 513.947 140.247 513.448 143.52C506.083 211.496 498.966 218.59 432.164 224.958C428.959 225.184 426.65 227.641 426.65 230.766C426.65 233.841 428.959 236.132 432.164 236.552C498.589 244.813 505.355 249.711 513.448 318.012C513.947 321.212 516.376 323.344 519.422 323.344Z" fill="url(#paint1_linear_2148_10045)"/>
</g>
</g>
<defs>
<radialGradient id="paint0_radial_2148_10045" cx="0" cy="0" r="1" gradientUnits="userSpaceOnUse" gradientTransform="translate(722 765) rotate(162.983) scale(1002.91 947.678)">
<stop stop-color="#FF8569"/>
<stop offset="0.9375"/>
</radialGradient>
<linearGradient id="paint1_linear_2148_10045" x1="519.385" y1="138.137" x2="519.385" y2="323.344" gradientUnits="userSpaceOnUse">
<stop stop-color="#FF8D72"/>
<stop offset="1" stop-color="#FF7B5C"/>
</linearGradient>
<clipPath id="clip0_2148_10045">
<rect width="722.449" height="764.552" rx="200" fill="white"/>
</clipPath>
<clipPath id="clip1_2148_10045">
<rect width="185.47" height="185.333" fill="white" transform="translate(426.65 138.137)"/>
</clipPath>
</defs>
</svg>
