<svg width="519" height="424" viewBox="0 0 519 424" fill="none" xmlns="http://www.w3.org/2000/svg">
<path d="M103.078 304.363C153.789 304.363 181.8 270.609 181.8 230.169C181.8 215.269 175.785 199.483 165.834 189.74C160.483 184.668 157.348 182.683 157.348 176.736C157.348 171.222 161.462 167.13 167.84 167.13C172.183 167.13 175.056 168.433 179.519 172.191C186.879 178.698 192.92 188.37 196.639 199.189C228.136 191.697 241.659 171.947 241.659 139.297C241.659 133.455 246.477 128.636 252.319 128.636C258.271 128.636 263.139 133.455 263.139 139.297C263.396 181.564 243.688 209.213 202.416 219.478C202.684 223.147 203.001 226.67 203.001 230.448C203.001 265.223 187.11 293.058 160.086 309.819C180.187 326.463 207.615 334.861 236.594 334.861C242.232 334.861 249.154 334.287 260.954 333.566C258.526 325.181 257.416 316.673 257.416 308.283C257.416 196.244 412.052 217.112 412.052 104.95C412.052 61.3001 372.217 30.6057 328.591 30.6057C322.692 30.398 315.011 31.5952 307.623 33.7217C293.973 12.0631 269.327 0 244.649 0C201.909 0 172.239 28.9865 170.653 69.3686C170.434 75.9877 165.893 80.0299 160.051 80.0299C153.93 80.0299 149.172 75.3804 149.391 68.3457C150.282 52.6908 154.104 38.5012 160.61 26.3509C150.128 22.7973 139.389 21.0148 128.662 21.0148C81.2066 21.0148 49.3782 52.2168 49.3782 86.9423C49.3782 112.621 67.8447 135.586 100.35 135.586C106.094 135.586 111.17 140.614 111.17 146.357C111.17 152.101 106.094 157.068 100.35 157.068C65.3312 157.068 41.8378 139.608 32.0646 115.328C12.117 136.267 0 166.069 0 195.658C0 258.913 41.6539 304.363 103.078 304.363ZM408.1 423.145C451.567 423.145 473.781 368.382 473.781 302.29C473.781 293.033 473.365 284.114 472.999 275.634C457.003 284.06 437.447 288.391 414.916 287.565C409.013 287.286 404.255 282.855 404.255 276.904C404.255 270.952 409.013 265.804 414.916 266.194C464.082 268.075 496.843 239.592 496.843 195.172C496.843 153.953 472.866 121.963 435.213 109.197C421.874 234.152 279.783 215.02 277.622 305.613C276.905 334.759 298.806 357.552 332.977 357.552C343.51 357.552 348.263 357.234 353.593 357.028C357.04 393.729 377.196 423.145 408.1 423.145Z" fill="#38383A"/>
</svg>
