<svg width="755" height="755" viewBox="0 0 755 755" fill="none" xmlns="http://www.w3.org/2000/svg">
<g id="qredence">
<g clip-path="url(#clip0_1792_665)">
<rect width="755" height="755" rx="200" fill="white" fill-opacity="0.73"/>
<path id="Qr." d="M341.826 499.959C322.222 508.243 301.789 512.384 280.528 512.384C252.364 512.384 226.685 505.757 203.492 492.504C180.574 478.974 162.488 460.75 149.235 437.833C135.981 414.915 129.354 389.789 129.354 362.453C129.354 335.117 135.981 309.991 149.235 287.073C162.488 263.879 180.574 245.518 203.492 231.988C226.685 218.458 252.364 211.693 280.528 211.693C308.692 211.693 334.233 218.458 357.151 231.988C380.068 245.518 398.016 263.879 410.993 287.073C424.247 309.991 430.874 335.117 430.874 362.453C430.874 383.438 426.87 403.318 418.863 422.094C411.131 440.87 400.087 457.023 385.729 470.553L425.489 530.608H362.535L341.826 499.959ZM189.41 362.453C189.41 380.124 193.137 396.277 200.592 410.911C208.048 425.546 218.678 437.143 232.484 445.702C246.29 454.262 262.304 458.542 280.528 458.542C292.677 458.542 303.86 456.609 314.076 452.743L279.286 400.143H342.24L355.08 419.195C365.572 402.904 370.818 383.99 370.818 362.453C370.818 344.782 367.091 328.629 359.636 313.995C352.457 299.084 341.964 287.349 328.158 278.79C314.629 269.954 298.752 265.536 280.528 265.536C262.304 265.536 246.29 269.954 232.484 278.79C218.678 287.349 208.048 299.084 200.592 313.995C193.137 328.629 189.41 344.782 189.41 362.453ZM451.721 291.629H505.978V332.632C509.844 316.894 517.299 305.021 528.344 297.013C539.664 289.006 554.437 285.555 572.66 286.659V339.259H564.791C548.224 339.259 534.556 344.505 523.788 354.998C513.019 365.214 507.635 379.158 507.635 396.83V507H451.721V291.629ZM590.205 512.384C579.712 512.384 570.876 508.795 563.697 501.616C556.518 494.437 552.929 485.877 552.929 475.937C552.929 465.997 556.518 457.575 563.697 450.672C570.876 443.493 579.712 439.904 590.205 439.904C600.697 439.904 609.395 443.493 616.298 450.672C623.477 457.575 627.066 465.997 627.066 475.937C627.066 486.153 623.477 494.851 616.298 502.03C609.395 508.933 600.697 512.384 590.205 512.384Z" fill="black" fill-opacity="0.85"/>
</g>
<rect x="23" y="23" width="709" height="709" rx="177" stroke="#252525" stroke-opacity="0.9" stroke-width="46"/>
<rect x="23" y="23" width="709" height="709" rx="177" stroke="#7C7C7C" stroke-width="46" style="mix-blend-mode:overlay"/>
</g>
<defs>
<clipPath id="clip0_1792_665">
<rect width="755" height="755" rx="200" fill="white"/>
</clipPath>
</defs>
</svg>
